<?xml version="1.0" encoding="utf-8"?>
<!-- Generator: Adobe Illustrator 22.1.0, SVG Export Plug-In . SVG Version: 6.00 Build 0)  -->
<svg version="1.1" id="Layer_1" xmlns="http://www.w3.org/2000/svg" xmlns:xlink="http://www.w3.org/1999/xlink" x="0px" y="0px"
	 viewBox="0 0 266.1 139.6" style="enable-background:new 0 0 266.1 139.6;" xml:space="preserve">
<style type="text/css">
	.st0{fill:#FFFFFF;}
</style>
<path class="st0" d="M240.3,83.2c-0.1,0.8-2.1,10.4-14.8,9.1c-10.6-1.1-19.5-11.2-20.4-22c-1-11.3,6.5-24.4,16.3-25.1
	c8.9-0.7,16.9,8.8,16.7,11.2C237.9,58,242,70.1,240.3,83.2 M257.7,84.8c-1.5-3-2.3-30.9-0.6-69.1c0.2-3.6,0.2-9.1-2.8-10.8
	c-3.6-2.1-17.1,0.7-15.8,7.5c2.5,13.2,2,23.6-0.2,26.7c-2.2,3.2-5.7-4.7-13.6-3.6c-3.2,0.4-10.2,2.5-18.7,10.8
	c-10.8,10.5-13.9,14.2-14.8,17.6c-1.9,7.9,3.1,24.3,1.4,25c-1,0.4-6.3,1.7-6.7-4c-1-14.9-1.9-34.3-0.1-66.6c0.3-5,1.2-8.8-1.8-11
	c-4.6-3.3-13.9,2-16,8.1c-1.5,4.2,0.1,6.6-0.4,8.5c-1.1,4.2,5.5,68.8-1.1,69.8c-2.2,0.3-5.5-3.6-5.7-5.6
	c-1.3-11.8,0.2-35.4-1.5-37.9c-3.2-4.9-6.6-10.9-11.9-11.2c-4.9-0.2-7.3,5.6-11.2,4.2c-2.6-1-2.1-3.7-4.8-5.3
	c-3.8-2.3-13.2-0.7-15.3,5.3c-2.4,7.1,1.4,26.9-1.5,41.9c-0.3,1.4-3.9,6.4-9.1,6.8c-5.1,0.4-9.1-5.2-10-5.7c-4.2-2.1,1.1-43-5-47.8
	c-2.6-2.1-5,1-10.3-1.7c-5.4-2.7-3.8-4.7-7-4.9c-4.9-0.2-6,8.6-12.7,8.9c-5.6,0.2-7.7-5.4-15.5-7c-7.9-1.7-16.8,4.2-24,9.7
	C12,50.4,3.1,56.6,2.8,65.9C2.1,82.7,12,101.6,22.9,102c3.2,0.1,7.9-2.8,11.5-8c0.2-0.3,0.5-1.6,0.6-1.8l-5.8-2.6
	c-2.8-2.1-6-5.7-8.6-11.9c-4.6-11-3.4-25.6,5.7-29.6c7.3-3.2,15.9,2.2,17.8,3.5c7.6,5.4,15.3,15.6,12.3,24
	C52.9,85.2,37.8,87,37.7,92.1c0,1.1,16.5,5.5,18.6,17.6c1.1,6.2-2.1,12.6-7,15.9c-7.9,5.2-19.9,1-25.3-4.3c-3.5-3.4-4.7-5.2-7.6-5.6
	c-3.7-0.5-7.6,4.9-7.3,9.2c0.5,6.7,14.2,11.5,26,11c16.1-0.6,24.5-12,25.1-12.9c1.5-2.1,9.4-12.1,7.5-23.7c-1.7-9.9-8-13.2-6.9-21.4
	c0.7-5.1,5.4-1.2,6.4-10.4c1.1-11-2.3-17.5,4.1-18.5c2.2-0.3,4.5,0.3,4.7,0.8c3,11.5-1.1,29.8,2.2,43c1.8,6.9,12.6,13.4,19.7,12.4
	c9-1.2,10.5-10.2,15.2-9.3c3.9,0.8,2.3,6.9,6.5,8.1c3.8,1.1,10.8-2.3,11.9-8.3c2.6-14.1,1.2-40.2,1.5-44.1c0.2-3.2,3.5-2.1,5.1-1.4
	c6.8,3.2,5.2,20,5.9,44.3c0.1,2.1,4.2,11.2,11.3,11.1c7.9-0.1,7.8-7.6,14.4-8.1c6.6-0.6,6.6,7.4,13.5,7c6.5-0.4,7.3-6.8,13.6-7.4
	c7.5-0.6,11,7.2,18.6,7.6c9.7,0.4,13.8-10.5,22-11.2c7.1-0.7,7.4,9.5,14.4,9.6c5.4,0,11.2-5.1,11-9.9
	C262.8,89.7,259.2,87.8,257.7,84.8"/>
<path class="st0" d="M160.1,21.9c-6.3,4.7-9,9.6-16.1,10.8c-4,0.7-10.3-6.7-7.7-9.8c5.8-6.7,8.1-6.4,15.4-10.5
	C155.3,10.4,163.4,19.5,160.1,21.9"/>
</svg>
