<?xml version="1.0" encoding="utf-8"?>
<!-- Generator: Adobe Illustrator 19.2.0, SVG Export Plug-In . SVG Version: 6.00 Build 0)  -->
<svg version="1.1" xmlns="http://www.w3.org/2000/svg" xmlns:xlink="http://www.w3.org/1999/xlink" x="0px" y="0px"
	 viewBox="0 0 850.4 566.9" style="enable-background:new 0 0 850.4 566.9;" xml:space="preserve">
<style type="text/css">
	.st0{display:none;}
	.st1{display:inline;}
	.st2{display:inline;stroke:#000000;stroke-miterlimit:10;}
	.st3{display:inline;fill:#FFFFFF;stroke:#FFFFFF;stroke-miterlimit:10;}
	.st4{display:inline;fill:#FFFFFF;}
	.st5{stroke:#000000;stroke-miterlimit:10;}
	.st6{display:inline;fill:none;stroke:#000000;stroke-width:16;stroke-miterlimit:10;}
	.st7{display:inline;fill:none;stroke:#000000;stroke-miterlimit:10;}
	.st8{fill:none;}
	.st9{fill:#FFFFFF;}
</style>
<g id="Layer_1" class="st0">
</g>
<g id="Layer_4" class="st0">
	<g id="lURJcr_1_" class="st1">
		
			<image style="overflow:visible;" width="500" height="439" id="lURJcr" xlink:href="8E330FC72C0DA1F5.jpg"  transform="matrix(0.4591 0 0 0.4591 135 148.5134)">
		</image>
	</g>
</g>
<g id="Layer_6" class="st0">
	<path class="st2" d="M186.7,289.3c-1.4-0.4-4.9-5.8-4-8c1.6-3.9,1.2-3.1,3.3-10.7c0.3-1.1,2-10.7-1-14c-3.9-4.3-6.8,1.3-12.7-7.7
		c-5.1-7.8-9.9-32-7.3-32.3c1.9-0.3,4,12.3,14.7,17c9.4,4.2,8.8,1.3,10.3,12c0.7,5.2,2.7,20.2,4,20.3c1.2,0.1,4.7-9.2,4-20
		c-0.2-3.3-1.1-17.3-11-24.7c-1.4-1-2.7-1.7-5.3-3c-9.7-4.8-17.8-5.9-17.7-7c0.1-0.9,5.5,0,6-2c1.2-4.8-3-3.5-5-7
		c-1.8-3.2-3.9-18.9-1.3-19.7c2.7-0.8,8.1,10,9.3,9.3c1.1-0.6-3.1-8.8-1-10.3c1.3-1,3.5,2.2,8.3,3c6.2,1,10.5-4.3,11.4-2.8
		c0.2,0.3,1,2.1,0.7,2.9c-1.1,3.3-2.4,5.3-2.8,6.2c-1.9,4.2,4.2,7.4,3.3,13c-0.7,4.2-5.2,4.3-4.7,7.2c0.6,3.5,6.3,12.4,8.4,12.8
		c3.3,0.7,5.1-20.2,5.7-29.7c0.2-3.5-6.1-4.1-6.3-7.7c-0.2-3,2.2-5.3,2.7-5.7c1.7-1.2,13.4,0,17,0.7c4.8,0.8-8.4,4.6-5.7,8.7
		c1.3,1.9,20.2-8.8,21.7-5.7c1.4,3-2.1,10.2-7.3,16.3c-2.3,2.8-9,0-14.7,6.3c-2.4,2.7-5.8,19.6-6,22.3c-0.4,6.1,2.9,22.9-1,32
		C196.9,275,189.1,290,186.7,289.3z"/>
	<path class="st3" d="M169.3,193.3c-1.9,2,7,13.5,7.7,13.2c0.5-0.3-3.6-7.4-2.7-8c1-0.6,6.2,6.9,7.2,6.3c0.6-0.4-0.5-4-2.8-6.8
		C175.6,194.4,170.5,192.1,169.3,193.3z"/>
	<path class="st4" d="M176.2,188.2c-0.8,0.8,0.7,3.4,1.3,4.5c0.7,1.3,1.7,3,2.5,2.8c1-0.2,1.8-4.1,0-6.2
		C178.9,188.1,176.8,187.5,176.2,188.2z"/>
	<path class="st4" d="M186.5,247.5c0.6-0.6-14.2-19.7-17.8-17.7c-2.1,1.2-0.9,9.8,4,15.2c3.4,3.7,8.5,6,9.3,5
		c1.5-1.7-11-14-10.3-14.7C172.4,234.6,186,248,186.5,247.5z"/>
	<path class="st2" d="M184.5,173.4c0.4-1.4,5.8-4.9,8-4c3.9,1.6,3.1,1.2,10.7,3.3c1.1,0.3,10.7,2,14-1c4.3-3.9-1.3-6.8,7.7-12.7
		c7.8-5.1,32-9.9,32.3-7.3c0.3,1.9-12.3,4-17,14.7c-4.2,9.4-1.3,8.8-12,10.3c-5.2,0.7-20.2,2.7-20.3,4c-0.1,1.2,9.2,4.7,20,4
		c3.3-0.2,17.3-1.1,24.7-11c1-1.4,1.7-2.7,3-5.3c4.8-9.7,5.9-17.8,7-17.7c0.9,0.1,0,5.5,2,6c4.8,1.2,3.5-3,7-5
		c3.2-1.8,18.9-3.9,19.7-1.3c0.8,2.7-10,8.1-9.3,9.3c0.6,1.1,8.8-3.1,10.3-1c1,1.3-2.2,3.5-3,8.3c-1,6.2,4.3,10.5,2.8,11.4
		c-0.3,0.2-2.1,1-2.9,0.7c-3.3-1.1-5.3-2.4-6.2-2.8c-4.2-1.9-7.4,4.2-13,3.3c-4.2-0.7-4.3-5.2-7.2-4.7c-3.5,0.6-12.4,6.3-12.8,8.4
		c-0.7,3.3,20.2,5.1,29.7,5.7c3.5,0.2,4.1-6.1,7.7-6.3c3-0.2,5.3,2.2,5.7,2.7c1.2,1.7,0,13.4-0.7,17c-0.8,4.8-4.6-8.4-8.7-5.7
		c-1.9,1.3,8.8,20.2,5.7,21.7c-3,1.4-10.2-2.1-16.3-7.3c-2.8-2.3,0-9-6.3-14.7c-2.7-2.4-19.6-5.8-22.3-6c-6.1-0.4-22.9,2.9-32-1
		C198.9,183.7,183.9,175.9,184.5,173.4z"/>
	<path class="st3" d="M279.5,161.1c-2-1.9-13.5,7-13.2,7.7c0.3,0.5,7.4-3.6,8-2.7c0.6,1-6.9,6.2-6.3,7.2c0.4,0.6,4-0.5,6.8-2.8
		C278.5,167.4,280.8,162.2,279.5,161.1z"/>
	<path class="st4" d="M284.7,167.9c-0.8-0.8-3.4,0.7-4.5,1.3c-1.3,0.7-3,1.7-2.8,2.5c0.2,1,4.1,1.8,6.2,0
		C284.8,170.7,285.4,168.6,284.7,167.9z"/>
	<path class="st4" d="M223.4,179.3c0.6,0.6,19.7-14.2,17.7-17.8c-1.2-2.1-9.8-0.9-15.2,4c-3.7,3.4-6,8.5-5,9.3
		c1.7,1.5,14-11,14.7-10.3C236.3,165.2,222.9,178.7,223.4,179.3z"/>
</g>
<g id="Layer_6_copy" class="st0">
	<path class="st2" d="M606.5,232.1c1.4,0.4,4.9,5.8,4,8c-1.6,3.9-1.2,3.1-3.3,10.7c-0.3,1.1-2,10.7,1,14c3.9,4.3,6.8-1.3,12.7,7.7
		c5.1,7.8,9.9,32,7.3,32.3c-1.9,0.3-4-12.3-14.7-17c-9.4-4.2-8.8-1.3-10.3-12c-0.7-5.2-2.7-20.2-4-20.3c-1.2-0.1-4.7,9.2-4,20
		c0.2,3.3,1.1,17.3,11,24.7c1.4,1,2.7,1.7,5.3,3c9.7,4.8,17.8,5.9,17.7,7c-0.1,0.9-5.5,0-6,2c-1.2,4.8,3,3.5,5,7
		c1.8,3.2,3.9,18.9,1.3,19.7c-2.7,0.8-8.1-10-9.3-9.3c-1.1,0.6,3.1,8.8,1,10.3c-1.3,1-3.5-2.2-8.3-3c-6.2-1-10.5,4.3-11.4,2.8
		c-0.2-0.3-1-2.1-0.7-2.9c1.1-3.3,2.4-5.3,2.8-6.2c1.9-4.2-4.2-7.4-3.3-13c0.7-4.2,5.2-4.3,4.7-7.2c-0.6-3.5-6.3-12.4-8.4-12.8
		c-3.3-0.7-5.1,20.2-5.7,29.7c-0.2,3.5,6.1,4.1,6.3,7.7c0.2,3-2.2,5.3-2.7,5.7c-1.7,1.2-13.4,0-17-0.7c-4.8-0.8,8.4-4.6,5.7-8.7
		c-1.3-1.9-20.2,8.8-21.7,5.7c-1.4-3,2.1-10.2,7.3-16.3c2.3-2.8,9,0,14.7-6.3c2.4-2.7,5.8-19.6,6-22.3c0.4-6.1-2.9-22.9,1-32
		C596.3,246.5,604,231.5,606.5,232.1z"/>
	<path class="st3" d="M622.8,328.1c1.9-2-7-13.5-7.7-13.2c-0.5,0.3,3.6,7.4,2.7,8c-1,0.6-6.2-6.9-7.2-6.3c-0.6,0.4,0.5,4,2.8,6.8
		C616.5,327.1,621.7,329.3,622.8,328.1z"/>
	<path class="st4" d="M616,333.3c0.8-0.8-0.7-3.4-1.3-4.5c-0.7-1.3-1.7-3-2.5-2.8c-1,0.2-1.8,4.1,0,6.2
		C613.3,333.4,615.3,333.9,616,333.3z"/>
	<path class="st4" d="M604.6,272c-0.6,0.6,14.2,19.7,17.8,17.7c2.1-1.2,0.9-9.8-4-15.2c-3.4-3.7-8.5-6-9.3-5
		c-1.5,1.7,11,14,10.3,14.7C618.8,284.8,605.2,271.4,604.6,272z"/>
	<path class="st2" d="M640.1,340.3c-0.4,1.4-5.8,4.9-8,4c-3.9-1.6-3.1-1.2-10.7-3.3c-1.1-0.3-10.7-2-14,1c-4.3,3.9,1.3,6.8-7.7,12.7
		c-7.8,5.1-32,9.9-32.3,7.3c-0.3-1.9,12.3-4,17-14.7c4.2-9.4,1.3-8.8,12-10.3c5.2-0.7,20.2-2.7,20.3-4c0.1-1.2-9.2-4.7-20-4
		c-3.3,0.2-17.3,1.1-24.7,11c-1,1.4-1.7,2.7-3,5.3c-4.8,9.7-5.9,17.8-7,17.7c-0.9-0.1,0-5.5-2-6c-4.8-1.2-3.5,3-7,5
		c-3.2,1.8-18.9,3.9-19.7,1.3c-0.8-2.7,10-8.1,9.3-9.3c-0.6-1.1-8.8,3.1-10.3,1c-1-1.3,2.2-3.5,3-8.3c1-6.2-4.3-10.5-2.8-11.4
		c0.3-0.2,2.1-1,2.9-0.7c3.3,1.1,5.3,2.4,6.2,2.8c4.2,1.9,7.4-4.2,13-3.3c4.2,0.7,4.3,5.2,7.2,4.7c3.5-0.6,12.4-6.3,12.8-8.4
		c0.7-3.3-20.2-5.1-29.7-5.7c-3.5-0.2-4.1,6.1-7.7,6.3c-3,0.2-5.3-2.2-5.7-2.7c-1.2-1.7,0-13.4,0.7-17c0.8-4.8,4.6,8.4,8.7,5.7
		c1.9-1.3-8.8-20.2-5.7-21.7c3-1.4,10.2,2.1,16.3,7.3c2.8,2.3,0,9,6.3,14.7c2.7,2.4,19.6,5.8,22.3,6c6.1,0.4,22.9-2.9,32,1
		C625.7,330.1,640.7,337.8,640.1,340.3z"/>
	<path class="st3" d="M544.1,356.6c2,1.9,13.5-7,13.2-7.7c-0.3-0.5-7.4,3.6-8,2.7c-0.6-1,6.9-6.2,6.3-7.2c-0.4-0.6-4,0.5-6.8,2.8
		C545.1,350.3,542.8,355.5,544.1,356.6z"/>
	<path class="st4" d="M538.9,349.8c0.8,0.8,3.4-0.7,4.5-1.3c1.3-0.7,3-1.7,2.8-2.5c-0.2-1-4.1-1.8-6.2,0
		C538.8,347.1,538.2,349.2,538.9,349.8z"/>
	<path class="st4" d="M600.2,338.5c-0.6-0.6-19.7,14.2-17.7,17.8c1.2,2.1,9.8,0.9,15.2-4c3.7-3.4,6-8.5,5-9.3
		c-1.7-1.5-14,11-14.7,10.3C587.3,352.6,600.7,339,600.2,338.5z"/>
</g>
<g id="Layer_5" class="st0">
</g>
<g id="Layer_10">
</g>
<g id="Layer_2" class="st0">
	<g id="Layer_1_copy" class="st1">
		<path class="st5" d="M318,126.9c2-13.4,2.6-17.9,1.5-17.3c-1.9,1.1-9.5,7.2-12.6,6.2c-9-2.7-8.5-15.5-20.4-19.2
			c-14.5-4.5-58.1,11-60.5,14c-10.9,13.5-9.2,29.8-8.6,36.9c0.5,5.4,1.5,26.1,11.8,27.4c9.6,1.1,15.8-6.6,25.3-4.2
			c9.5,2.5,16.2,17.1,12.1,29c-3.7,10.7-18.5,16.4-26.9,12.9c-12.1-5-16.8-16.5-20.4-30.2c-1.4-5.2-18.2,3.6-19.2,7.7
			c-2.4,9.4,13.3,25.2,30.6,30.2c12.7,3.7,31.3,3.8,41.8-7.6c26-28.1,7-48.7,12.9-49.7c17.5-2.8,15.9-22.9,25-31.3
			C313.4,129.4,317.2,132.4,318,126.9z M265.5,163.5c-9.8,2.6-25.9,0.4-28.9-8.4c-4.6-13.7,9.3-45.3,17.7-44.1
			c12.4,1.8,32.1,6.4,32.7,17.4C288.2,151.8,280,159.6,265.5,163.5z"/>
		<path class="st5" d="M356.8,132.1c-11.4-3.8-20-9.1-23.9-8.3c-3.3,0.6-0.1,7.2-1.6,15.8c-0.2,1.1-14.6,39-17.3,53.3
			c-2.4,12.7,8.8,26.7,18.7,28.1c11.7,1.6,24.7-11.1,26-10.8c3.4,0.8-4,15.9-1.8,16.6c4,1.3,16,3.4,24.3-1
			c2.6-1.4,14.4-44.2,23.1-70.8c0.9-2.6,7.6-6.4,5-7.2c-7.8-2.3-25.8-6.5-27.3-3.2c-7.9,17.4-14.2,50.9-17.4,57
			c-2.6,4.9-11.7,4.7-17,2c-6.9-3.4-9.4-12.7-8.9-15.3C342.8,164.2,360.1,133.3,356.8,132.1z"/>
		<path class="st5" d="M221.2,243.3c-2.5-0.3-13.2,11.3-16,17.2c-1.4,3,13,3.2,14.6,8.2c5.5,16.7,13.1,48.4,14.7,53
			c1,2.8,13.7,11.4,15.4,10.1c2.6-2.1,16.9-13.7,18-18.2c1.2-5.1-9,0.9-12.8-6.6c-6.2-12.2-14.7-48.7-16.1-55.3
			C238.9,251.8,229.3,244.4,221.2,243.3z"/>
		<path class="st5" d="M289.8,215.1c-5.6,4.3-20.3,16.3-22.5,19.7c-1.6,2.5,5.5,9,6.2,12c0.7,3.1,6.8,61.1,8.8,82.3
			c0.3,2.7,6.8,9.1,16.9,11c3.6,0.6,11.9-8.1,17.1-13.2c2.3-2.2-15.1-7.9-15.5-12.6C299.6,303,293,212.6,289.8,215.1z"/>
		<path class="st5" d="M379,313.1c9.6-16.1,41.5-69,51.2-84.8c1.8-3-24.7-6.9-25.8-5.2c-5.2,8-12.1,33.5-17.9,33.6
			c-3.7,0.1-3.9-10.4-11.2-17.1c-6.8-6.2-46.3,5.2-50.1,7.8c-17.7,11.8-18.7,37.7-12.3,52.3c1.4,3.2,2.8,6.3,6.1,8.7
			c11,7.9,29.4-7,34,2.3c2,4.1,2,19.7,6.7,20.8c6.7,1.5,14.3,1.3,21.6-2.3C384.2,327.7,376.3,317.7,379,313.1z M352.3,303.7
			c-9.4-0.6-25.5-10.8-24.4-19.5c3.5-27.8,23.4-39,35-34.3c10.8,4.4,20.5,14.1,15.3,23C366.1,293.3,364.1,304.5,352.3,303.7z"/>
		<path class="st5" d="M389.7,431.7"/>
	</g>
	<g id="Layer_13">
		<rect x="208" y="186.9" class="st6" width="373" height="197"/>
	</g>
	<g id="Layer_14">
		<path class="st6" d="M214,188c-0.3-4.5,362.2-7.6,362.5-2c3.4,66.8,4.2,193.4-3.2,194c-24.8,1.9-363.8,21.5-363.3,3
			C211.7,318.8,216.9,227.5,214,188z"/>
	</g>
	<g id="Layer_11" class="st1">
		<path d="M216.8,238.1c-4.8,4.9-14.8,14.1-18.6,15.7c-1.9,0.8-16.4-8.6-13-12.4c4.6-5.1,10.1-9.9,17.2-17
			C204.7,222.2,217.7,237.1,216.8,238.1z"/>
	</g>
	<g id="Layer_8">
		<g id="vx1GDo_1_" class="st1">
			
				<image style="overflow:visible;" width="43" height="47" id="vx1GDo_2_" xlink:href="8E330FC72C0DA1F7.jpg"  transform="matrix(1.3 0 0 1.3 464.5083 159.8996)">
			</image>
		</g>
	</g>
	<g id="Layer_12" class="st1">
	</g>
	<g id="Layer_15" class="st1">
	</g>
	<g id="Layer_16" class="st1">
	</g>
	<g id="Layer_9">
	</g>
</g>
<g id="Layer_18" class="st0">
</g>
<g id="Layer_17" class="st0">
	<path class="st7" d="M349.4,335.6c-3.3-1-5.6-3.9-7-7c-3.9-8.5-2.3-18.7,1.8-27.2"/>
	<path class="st7" d="M348.7,337.4c-10.2,0.6-20.3-2.6-30-5.9c-3.6-1.2-7.3-2.5-9.7-5.3c-1.5-1.8-2.4-4-3.2-6.2
		c-2.4-6.5-4.2-13.1-5.6-19.9"/>
	<path class="st7" d="M311.5,331.6c-6.4-2.6-12.3-6.4-17.4-11.1c-2-1.8-3.9-3.8-5.2-6.2c-1.2-2.2-1.9-4.6-3-6.8s-2.6-4.4-4.8-5.5"/>
	<path class="st7" d="M308,328.7c-9.3-0.3-17.5-5.9-26.7-7.3"/>
	<path class="st7" d="M345.3,339.2c-8.3-0.4-16.7-0.8-24.8,0.9c-8.1,1.7-16.1,5.8-20.8,12.6c-1.5,2.2-2.7,4.8-4.8,6.5
		c-5.9,5.1-16.7,2.3-21.3,8.7"/>
	<path class="st7" d="M299.2,353.4c-0.8,2.6-1.5,5.2-2.2,7.8c-1.3,5-2.3,10.4-0.3,15.1c2.5,6,9.4,9.5,11.6,15.7"/>
	<path class="st7" d="M294.8,357.9c-1.2,9.3-2.5,18.6-5.4,27.5c-2.9,8.9-7.6,17.4-14.8,23.4"/>
	<path class="st7" d="M346.8,337.5c-3.3,3.4-5.1,8.2-5.2,13c-0.1,4.8,1.3,9.5,3.8,13.6c1.4,2.4,3.2,4.7,5.5,6.3
		c2.2,1.5,4.7,2.4,7.2,3.3c2.7,1,5.4,1.9,8.1,2.9"/>
	<path class="st7" d="M349,369.8c1.4,5,4.1,9.7,7.9,13.3c1.1,1,2.2,2,3.2,3.1c2.5,2.7,3.9,6.3,4.1,9.9"/>
	<path class="st7" d="M348.9,369c-0.3,8.9-1.9,17.8-4.8,26.3"/>
	<path class="st7" d="M381.7,349.4c-6.3-0.6-12.8,0.8-18.9-0.6c-6.5-1.5-12.1-6.3-14.5-12.5"/>
</g>
<g id="Layer_19" class="st0">
</g>
<g id="Layer_20" class="st0">
</g>
<g id="Layer_21">
	<path d="M649.2,309c-2.8-5.5-4.2-56-1-125c0.3-6.5,0.3-16.4-5-19.5c-6.5-3.8-31,1.2-28.6,13.7c4.6,23.8,3.6,42.7-0.4,48.3
		c-4,5.8-10.2-8.5-24.6-6.6c-5.8,0.8-18.4,4.5-33.8,19.6c-19.5,19.1-25.2,25.7-26.8,31.9c-3.5,14.2,5.6,44,2.5,45.2
		c-1.8,0.7-11.5,3-12.2-7.2c-1.8-27-3.4-62.2-0.1-120.5c0.5-9,2.2-16-3.3-20c-8.3-6-25.1,3.6-29,14.7c-2.7,7.6,0.2,12-0.7,15.3
		c-2,7.7,10,124.5-2,126.3c-4,0.6-9.9-6.6-10.3-10.2c-2.3-21.3,0.3-64.2-2.7-68.7c-5.9-8.8-12-19.8-21.5-20.2
		c-8.8-0.4-13.3,10.1-20.3,7.5c-4.8-1.8-3.8-6.8-8.7-9.7c-7-4.2-24-1.3-27.7,9.7c-4.3,12.9,2.5,48.7-2.7,75.8
		c-0.5,2.5-7.1,11.7-16.5,12.4c-9.2,0.7-16.4-9.5-18.2-10.3c-7.7-3.8,2-77.8-9-86.5c-4.7-3.7-9,1.9-18.7-3
		c-9.7-4.9-6.9-8.5-12.6-8.8c-8.8-0.4-10.9,15.7-22.9,16.2c-10.1,0.4-14-9.7-28-12.7c-14.4-3-30.4,7.7-43.5,17.5
		c-16.6,12.5-32.7,23.8-33.3,40.5c-1.2,30.5,16.7,64.7,36.5,65.3c5.7,0.2,14.4-5,20.8-14.6c0.3-0.5,0.8-3,1-3.2l-10.5-4.8
		c-5-3.8-10.9-10.4-15.5-21.5c-8.2-19.9-6.2-46.3,10.2-53.5c13.3-5.8,28.7,3.9,32.2,6.4c13.8,9.9,27.7,28.3,22.3,43.4
		c-6.2,17.4-33.5,20.8-33.7,30c0,2,29.9,10,33.7,31.8c1.9,11.2-3.8,22.8-12.8,28.8c-14.2,9.4-36,1.8-45.8-7.8
		c-6.3-6.2-8.6-9.4-13.8-10.1c-6.6-0.9-13.7,8.9-13.2,16.6c0.9,12.1,25.7,20.8,47,20c29.1-1,44.4-21.8,45.5-23.3
		c2.8-3.7,17.1-22,13.5-43c-3-17.9-14.4-23.8-12.5-38.8c1.2-9.2,9.8-2.2,11.5-18.8c2-19.9-4.2-31.8,7.5-33.5c4-0.6,8.2,0.6,8.5,1.5
		c5.5,20.8-2,54,4,77.8c3.2,12.6,22.8,24.3,35.8,22.5c16.2-2.2,19-18.5,27.5-16.8c7,1.5,4.2,12.6,11.8,14.8c6.8,2,19.5-4.1,21.5-15
		c4.8-25.5,2.2-72.8,2.8-79.8c0.4-5.7,6.3-3.9,9.2-2.5c12.2,5.8,9.5,36.3,10.8,80.3c0.1,3.8,7.5,20.2,20.5,20
		c14.2-0.2,14.1-13.7,26-14.8c11.9-1,12,13.3,24.4,12.6c11.7-0.7,13.2-12.4,24.7-13.3c13.5-1.1,19.9,13.1,33.7,13.7
		c17.6,0.8,25-19,39.9-20.4c12.9-1.2,13.4,17.2,26.1,17.4c9.8,0.1,20.3-9.2,20-18C658.5,317.9,651.9,314.4,649.2,309z M617.7,306
		c-0.2,1.4-3.8,18.8-26.8,16.5c-19.2-2-35.3-20.3-37-39.8c-1.8-20.4,11.8-44.2,29.5-45.5c16-1.2,30.6,15.9,30.2,20.3
		C613.5,260.5,620.7,282.5,617.7,306z"/>
	<path class="st8" d="M619.7,307c-0.2,1.4-3.8,18.8-26.8,16.5c-19.2-2-35.3-20.3-37-39.8c-1.8-20.4,11.8-44.2,29.5-45.5
		c16-1.2,30.6,15.9,30.2,20.3C615.5,261.5,622.7,283.5,619.7,307z"/>
	<rect id="_x3C_Slice_x3E_" x="711" y="497.9" class="st8" width="11" height="9.2"/>
	<path d="M474.6,196.2c-11.4,8.5-16.4,17.3-29.1,19.5c-7.3,1.3-18.6-12.2-13.9-17.8c10.4-12.1,14.7-11.6,27.8-19
		C465.9,175.3,480.6,191.8,474.6,196.2z"/>
	<g>
		<g>
			<path d="M150.1,324.3c-3.3-2.1-9.8-10.7-8.9-12.6c4-8.7,10.3-28.4,6-37.3c-2.5-5.3-17,1.7-20-10.2c-3.2-12.7-17.3-49.2-10.7-51.5
				c5.3-1.8,10,27,30.3,27.7c15.5,0.5,8.3,45,13.3,46.3c6.5,1.7,7.5-21,6.8-27.7c-1.2-12.2-6.5-31-19.8-39.6
				c-5.9-3.9-30.4-6.6-30.7-13.7c-0.1-2.3,7.7-2.4,8-4.7c0.4-2.9-6.8-6-8-8.7c-3.2-7-8.6-27.2-1.8-30.7c4.5-2.4,9.2,15.7,13.8,13.4
				c3.7-1.9-5.9-12.6-2.2-14.7c3.5-2,9.9,4.5,13.9,5c4.7,0.6,14-7.3,17.7-4.3c3.7,2.9-3.1,14-2.7,18.7c0.3,3.1,3.9,10.1,3.8,13.3
				c-0.1,4-3.5,7.3-5.8,13.4c-2,5.3,8.3,19.7,11.9,18c3.7-1.8,6.4-33.6,7.4-44.6c0.3-3.7-8.8-5.7-8.3-9.3c2-17-19.3-15.3-18.3-22.3
				c0.5-4,8.3-4.5,12.3-5c7.7-0.9,25,8.7,35,4.3c5.3-2.3,5.2-13.5,8.2-16.8c10.1-10.7,50-19.5,54.2-15c2.5,2.7-17.1,8.3-20.5,15
				c-2.3,4.6-4,25.1-12.3,21.7c-9.6-3.9-37.6,14-35.6,17c1.8,2.6,9.9,11.8,17,4.8c12-11.8,23.3-16.1,36.2-18.1
				c11.6-1.8,19-42.3,24.8-42.4c2.8,0-0.9,12.3,0.3,9.8c0.8-1.6,5.3,3,5.7,0.3c1.8-12.7,31.2-12.5,36.3-8.7c4,2.9-16,8.2-13.2,12.3
				c1.9,2.8,11.8-3.5,14.3-1.3c3.3,2.9-4.9,11.9-4.8,16.3c0.1,3.8,8.3,14,4.7,15c-11.3,3-12.2-9.8-31.1,2
				c-5.2,3.3-9.1-10.1-14.6-7.4c-2,1-17.5,9.8-17,12c1.6,8,35.3,9,43.8,8.2c4.3-0.4,10.5-11.9,14.6-10.4c7.9,3,10.5,28.8,3,32.7
				c-3.8,2-8.7-13.8-12.6-11.8c-3.8,1.9,24.4,31.5,8.6,25.1c-8.6-3.5-8.1,10.6-15.4,6.8c-6.7-3.5-7.9-5.5-11.2-9.5
				c-2.5-3,0.5-13-2.5-15.5c-4.3-3.6-21.7-12.7-27.3-12.6c-6,0.2-20.2-1.6-26.1-0.4c-6.9,1.4-10.6,14.7-14.2,15.1
				c-31,3.3-22.3,19.4-26.3,26.7c-2,3.7-4.8,11.8-5,16c-0.4,9.6,4.7,29.1,2.5,38.5C170.6,303.7,150.1,324.3,150.1,324.3"/>
			<path class="st9" d="M287.5,145.9c-7.9-1.1-3.3,8.1-18.5-1.2c-3.8-2.3-1.9-10.1,2-11c8.5-2.1,6-1.1,14.8-1
				C290,132.7,291.6,146.4,287.5,145.9z"/>
		</g>
		<path class="st9" d="M139.5,205.2c-6.7-4.6-8.6-6.3-12.8-12.8c-2.4-3.8,4-14.4,7.8-12.9c8.1,3.3,13.8-4.2,14.2,6
			C149,189.8,143,207.6,139.5,205.2z"/>
		<path class="st9" d="M143,266.2c-7.7,1.1-21-33.8-17.4-31.8c18.2,9.8,29.8,28.4,28.6,30c-0.7,1-9.4-9.3-18.5-15.2
			C130.6,245.8,148.2,265.5,143,266.2z"/>
		<path class="st9" d="M201.9,143.9c-8.1-4,34.5-28.2,33.3-21.4c-1.4,8-36.5,31.7-30,25.2C231.1,122.3,204.4,145.2,201.9,143.9z"/>
	</g>
	<g>
		<g>
			<path d="M698.8,238.2c3.3,2.1,9.8,10.7,8.9,12.6c-4,8.7-10.3,28.4-6,37.3c2.5,5.3,17-1.7,20,10.2c3.2,12.7,17.3,49.2,10.7,51.5
				c-5.3,1.8-10-27-30.3-27.7c-15.5-0.5-8.3-45-13.3-46.3c-6.5-1.7-7.5,21-6.8,27.7c1.2,12.2,6.5,31,19.8,39.6
				c5.9,3.9,30.4,6.6,30.7,13.7c0.1,2.3-7.7,2.4-8,4.7c-0.4,2.9,6.8,6,8,8.7c3.2,7,8.6,27.2,1.8,30.7c-4.5,2.4-9.2-15.7-13.8-13.4
				c-3.7,1.9,5.9,12.6,2.2,14.7c-3.5,2-9.9-4.5-13.9-5c-4.7-0.6-14,7.3-17.7,4.3c-3.7-2.9,3.1-14,2.7-18.7
				c-0.3-3.1-3.9-10.1-3.8-13.3c0.1-4,3.5-7.3,5.8-13.4c2-5.3-8.3-19.7-11.9-18c-3.7,1.8-6.4,33.6-7.4,44.6
				c-0.3,3.7,8.8,5.7,8.3,9.3c-2,17,19.3,15.3,18.3,22.3c-0.5,4-8.3,4.5-12.3,5c-7.7,0.9-25-8.7-35-4.3c-5.3,2.3-5.2,13.5-8.2,16.8
				c-10.1,10.8-50,19.5-54.2,15c-2.5-2.7,17.1-8.3,20.5-15c2.3-4.6,4-25.1,12.3-21.7c9.6,3.9,37.6-14,35.6-17
				c-1.8-2.6-9.9-11.8-17-4.8c-12,11.8-23.3,16.1-36.2,18.1c-11.6,1.8-19,42.3-24.8,42.4c-2.8,0,0.9-12.3-0.3-9.8
				c-0.8,1.6-5.3-3-5.7-0.3c-1.8,12.7-31.2,12.5-36.3,8.7c-4-2.9,16-8.2,13.2-12.3c-1.9-2.8-11.8,3.5-14.3,1.3
				c-3.3-2.9,4.9-11.9,4.8-16.3c-0.1-3.8-8.3-14-4.7-15c11.3-3,12.2,9.8,31.1-2c5.2-3.3,9.1,10.1,14.6,7.4c2-1,17.5-9.8,17-12
				c-1.6-8-35.3-9-43.8-8.2c-4.3,0.4-10.5,11.9-14.6,10.4c-7.9-3-10.5-28.8-3-32.7c3.8-2,8.7,13.8,12.6,11.8
				c3.8-1.9-24.4-31.5-8.6-25.1c8.6,3.5,8.1-10.6,15.4-6.8c6.7,3.5,7.9,5.5,11.2,9.5c2.5,3-0.5,13,2.5,15.5
				c4.3,3.6,21.7,12.7,27.3,12.6c6-0.2,20.2,1.6,26.1,0.4c6.9-1.4,10.6-14.7,14.2-15.1c31-3.3,22.3-19.4,26.3-26.7
				c2-3.7,4.8-11.8,5-16c0.4-9.6-4.7-29.1-2.5-38.5C678.4,258.9,698.8,238.2,698.8,238.2"/>
			<path class="st9" d="M561.4,416.7c7.9,1.1,3.3-8.1,18.5,1.2c3.8,2.3,1.9,10.1-2,11c-8.5,2.1-6,1.1-14.8,1
				C558.9,429.9,557.3,416.1,561.4,416.7z"/>
		</g>
		<path class="st9" d="M709.4,357.3c6.7,4.6,8.6,6.3,12.8,12.8c2.4,3.8-4,14.4-7.8,12.9c-8.1-3.3-13.8,4.2-14.2-6
			C700,372.8,706,354.9,709.4,357.3z"/>
		<path class="st9" d="M705.9,296.3c7.7-1.1,21,33.8,17.4,31.8c-18.2-9.8-29.8-28.4-28.6-30c0.7-1,9.4,9.3,18.5,15.2
			C718.3,316.7,700.8,297.1,705.9,296.3z"/>
		<path class="st9" d="M647,418.6c8.1,4-34.5,28.2-33.3,21.4c1.4-8,36.5-31.7,30-25.2C617.9,440.2,644.5,417.4,647,418.6z"/>
	</g>
</g>
</svg>
